<?xml version="1.0" encoding="iso-8859-1"?>
<!-- Generator: Adobe Illustrator 24.1.2, SVG Export Plug-In . SVG Version: 6.00 Build 0)  -->
<svg fill="#228BE6" version="1.1" baseProfile="basic" id="&#x421;&#x43B;&#x43E;&#x439;_1"
	 xmlns="http://www.w3.org/2000/svg" xmlns:xlink="http://www.w3.org/1999/xlink" x="0px" y="0px" viewBox="0 0 48 48"
	 xml:space="preserve">
<path marker-end="none" marker-start="none" style="fill-rule:evenodd;clip-rule:evenodd;" d="M23.973,46.99
	c10.496,0,19.015,0.225,19.015,0.501c0,0.276-8.519,0.501-19.015,0.501S4.958,47.767,4.958,47.491
	C4.958,47.215,13.477,46.99,23.973,46.99z"/>
<path marker-end="none" marker-start="none" style="fill-rule:evenodd;clip-rule:evenodd;" d="M1.979,25.979
	c0-12.144,9.857-22,22.001-22c12.144,0,22.001,9.856,22.001,22c0,12.144-9.857,22-22.001,22
	C11.837,47.979,1.979,38.123,1.979,25.979z M42.958,25.979c0-10.475-8.503-18.976-18.977-18.976
	c-10.475,0-18.977,8.501-18.977,18.976s8.503,18.976,18.977,18.976C34.455,44.955,42.958,36.454,42.958,25.979z M22.994,43.003
	c0-0.552,0.448-1,1-1s1,0.448,1,1s-0.448,1-1,1S22.994,43.555,22.994,43.003z M14.995,41.593c-0.479-0.276-0.643-0.888-0.367-1.367
	c0.276-0.479,0.888-0.643,1.367-0.367c0.479,0.276,0.643,0.888,0.367,1.367C16.086,41.705,15.474,41.869,14.995,41.593z
	 M31.627,41.226c-0.276-0.479-0.112-1.091,0.367-1.367c0.479-0.276,1.091-0.112,1.367,0.367c0.276,0.479,0.112,1.091-0.367,1.367
	C32.515,41.869,31.903,41.705,31.627,41.226z M22.997,35.003l-0.001-7.267c-0.599-0.347-1-0.993-1-1.733
	c0-0.369,0.1-0.716,0.276-1.013l-9.128-9.129c-0.195-0.196-0.195-0.512,0-0.708c0.196-0.195,0.512-0.195,0.708,0l9.127,9.128
	c0.299-0.176,0.645-0.277,1.017-0.277c0.179,0,0.352,0.024,0.517,0.068l8.775-8.775c0.391-0.391,1.024-0.391,1.415,0
	c0.391,0.391,0.391,1.024,0,1.415l-8.775,8.775c0.044,0.165,0.068,0.339,0.068,0.517c0,0.74-0.401,1.385-0.999,1.732v7.268
	c0,0.552-0.449,1-1,1C23.445,36.003,22.997,35.555,22.997,35.003z M8.406,35.003c-0.276-0.479-0.112-1.091,0.367-1.367
	c0.479-0.276,1.091-0.112,1.367,0.367c0.276,0.479,0.112,1.091-0.367,1.367C9.294,35.646,8.682,35.482,8.406,35.003z M38.217,35.37
	c-0.479-0.276-0.643-0.888-0.367-1.367c0.276-0.479,0.888-0.643,1.367-0.367c0.479,0.276,0.643,0.888,0.367,1.367
	S38.695,35.646,38.217,35.37z M5.995,26.003c0-0.552,0.448-1,1-1s1,0.448,1,1s-0.448,1-1,1S5.995,26.555,5.995,26.003z
	 M39.994,26.003c0-0.552,0.448-1,1-1c0.552,0,1,0.448,1,1s-0.448,1-1,1C40.442,27.003,39.994,26.555,39.994,26.003z M8.773,18.37
	c-0.479-0.276-0.643-0.888-0.367-1.367c0.276-0.479,0.888-0.643,1.367-0.367c0.479,0.276,0.643,0.888,0.367,1.367
	S9.251,18.646,8.773,18.37z M37.85,18.003c-0.276-0.479-0.112-1.091,0.367-1.367c0.479-0.276,1.091-0.112,1.367,0.367
	c0.276,0.479,0.112,1.091-0.367,1.367C38.738,18.646,38.126,18.482,37.85,18.003z M14.629,11.782
	c-0.276-0.479-0.112-1.091,0.367-1.367c0.479-0.276,1.091-0.112,1.367,0.367c0.276,0.479,0.112,1.091-0.367,1.367
	C15.517,12.425,14.905,12.261,14.629,11.782z M31.994,12.149c-0.479-0.276-0.643-0.888-0.367-1.367
	c0.276-0.479,0.888-0.643,1.367-0.367c0.479,0.276,0.643,0.888,0.367,1.367C33.085,12.261,32.473,12.425,31.994,12.149z
	 M22.995,9.003c0-0.552,0.448-1,1-1s1,0.448,1,1s-0.448,1-1,1S22.995,9.555,22.995,9.003z"/>
</svg>